# xmcd
#
# Track frame offsets: 
#        150
#        16136
#        38184
#        56883
#
# Disc length: 2520 seconds
#
# Revision: 0
# Processed by: cddbd v1.5.2PL0 Copyright (c) Steve Scherf et al.
# Submitted via: ExactAudioCopy v0.99pb4
#
DISCID=2c09d604
DTITLE=Velasquez, Jaci - Open House Christmas EP
DYEAR=2007
DGENRE=Christmas/Holiday
TTITLE0=It Came Upon A Midnight Clear
TTITLE1=Quiet Christmas Night (Gloria)
TTITLE2=Auld Lang Syne
TTITLE3=The Open House Interview
EXTD=
EXTT0=
EXTT1=
EXTT2=
EXTT3=
PLAYORDER=
